<svg width="434" height="297" viewBox="0 0 434 297" fill="none" xmlns="http://www.w3.org/2000/svg">
<g opacity="0.999951" filter="url(#filter0_ddd_1047_1069)">
<g clip-path="url(#clip0_1047_1069)">
<rect x="7" width="420" height="280" rx="14" fill="#FBF3F1"/>
<rect x="7.5" y="0.5" width="419" height="279" rx="23.5" stroke="black" stroke-opacity="0.02"/>
<g filter="url(#filter1_d_1047_1069)">
<rect x="62" y="49" width="81" height="66" rx="14" fill="white"/>
</g>
<g clip-path="url(#clip1_1047_1069)">
<path d="M102.5 64.5142C107.004 64.5221 111.32 66.3149 114.504 69.4995C117.688 72.6841 119.48 77.001 119.487 81.5044C119.487 86.1968 117.577 90.4449 114.508 93.5238C111.439 96.6033 107.182 98.4856 102.5 98.4856C97.8087 98.4856 93.5612 96.6033 90.4923 93.5236C87.4234 90.4447 85.5132 86.1966 85.5132 81.5044C85.5204 77.0011 87.3123 72.6842 90.4963 69.4995C93.6804 66.3149 97.9969 64.5222 102.5 64.5142ZM101.721 95.8603V90.3702C100.211 90.4302 98.7197 90.7373 97.308 91.2792C97.1084 91.3403 96.9132 91.4147 96.7235 91.5018C96.8442 91.7432 96.9554 91.9837 97.0848 92.2157C97.9569 93.7744 98.9761 94.9804 100.126 95.6755C100.654 95.7706 101.186 95.8323 101.722 95.8604L101.721 95.8603ZM112.663 71.35C112.549 71.2286 112.428 71.1138 112.301 71.0061C111.671 71.4783 111.004 71.9004 110.308 72.2685C111.236 74.6882 111.81 77.601 111.903 80.7262H116.854C116.662 77.1906 115.169 73.8509 112.663 71.35ZM111.068 69.9686C110.162 69.2909 109.179 68.7239 108.138 68.2796C108.562 68.8392 108.946 69.4281 109.287 70.042C109.417 70.2834 109.556 70.5616 109.696 70.8398C110.159 70.5616 110.622 70.2739 111.067 69.9684L111.068 69.9686ZM104.873 67.3246C104.355 67.2424 103.816 67.1859 103.279 67.1491V72.6579C104.788 72.5841 106.277 72.2776 107.692 71.7491C107.897 71.6746 108.082 71.6001 108.276 71.5171C108.175 71.2663 108.036 71.0258 107.916 70.8032C107.062 69.2256 106.015 68.0384 104.873 67.3245L104.873 67.3246ZM101.721 67.1491C101.184 67.1859 100.646 67.2424 100.126 67.3246C98.9759 68.0385 97.9566 69.2256 97.0846 70.8032C96.9553 71.0257 96.8441 71.2662 96.7149 71.5171C96.9091 71.6002 97.1043 71.6747 97.3079 71.7491C98.7234 72.2778 100.212 72.5844 101.721 72.6581V67.1489V67.1491ZM96.863 68.2796C95.8223 68.7237 94.8386 69.2907 93.9327 69.9686C94.3777 70.2742 94.8416 70.5618 95.314 70.84C95.4319 70.5668 95.5651 70.3005 95.7128 70.0422C96.056 69.3926 96.4548 68.8182 96.863 68.2798V68.2796ZM92.6901 71.0059C92.5788 71.1086 92.4487 71.2293 92.3374 71.3498C89.831 73.8508 88.3382 77.1905 88.1465 80.7261H93.0983C93.1907 77.601 93.7658 74.6883 94.6832 72.2684C93.9893 71.8962 93.3232 71.4743 92.6901 71.006V71.0059ZM88.1465 82.2925C88.342 85.8272 89.8341 89.1656 92.3374 91.6687L92.6901 92.0205C93.3186 91.5408 93.9852 91.1131 94.6833 90.7417C93.7659 88.3117 93.1908 85.4185 93.0984 82.2926H88.1465V82.2925ZM93.9327 93.0417C94.8388 93.7189 95.8225 94.2856 96.863 94.7296C96.43 94.176 96.0452 93.5864 95.7128 92.9672C95.5735 92.7172 95.4347 92.4485 95.314 92.1883C94.8377 92.4462 94.3765 92.7311 93.9327 93.0415V93.0417ZM103.279 95.8603C103.814 95.8324 104.346 95.7706 104.873 95.6754C106.015 94.9804 107.062 93.7743 107.916 92.2157C108.035 91.9837 108.175 91.7432 108.276 91.5018C108.087 91.4144 107.892 91.34 107.692 91.2792C106.281 90.7373 104.79 90.4303 103.279 90.3702V95.8603H103.279ZM108.138 94.7296C109.178 94.2854 110.162 93.7187 111.068 93.0417C110.628 92.7298 110.17 92.4449 109.696 92.1885C109.557 92.4486 109.418 92.7174 109.288 92.9674C108.926 93.6068 108.547 94.2102 108.139 94.7298L108.138 94.7296ZM112.301 92.0205L112.663 91.6687C115.166 89.1656 116.658 85.8272 116.854 82.2925H111.903C111.81 85.4185 111.236 88.3117 110.308 90.7417C111.008 91.1089 111.675 91.5368 112.301 92.0205H112.301ZM108.889 72.9446C108.677 73.039 108.46 73.1227 108.239 73.1954C106.652 73.8007 104.977 74.1449 103.279 74.2149V80.7261H110.327C110.243 77.8416 109.733 75.1701 108.889 72.9446H108.889ZM101.721 74.2149C100.026 74.1468 98.3538 73.8024 96.7697 73.1954C96.5427 73.1243 96.3199 73.0405 96.1022 72.9446C95.2678 75.1701 94.7483 77.8416 94.6644 80.7261H101.721V74.2149ZM101.721 88.7944V82.2925H94.6644C94.7483 85.1686 95.2678 87.8289 96.1022 90.0646C96.3247 89.9816 96.5472 89.8883 96.7697 89.8138C98.3085 89.2207 99.978 88.8774 101.721 88.7944ZM103.279 88.7944C104.973 88.868 106.645 89.2122 108.231 89.8138C108.453 89.8883 108.666 89.9816 108.889 90.0646C109.733 87.8289 110.243 85.1686 110.327 82.2925H103.279V88.7944Z" fill="#D2B596"/>
</g>
<g filter="url(#filter2_d_1047_1069)">
<rect x="290" y="48" width="81" height="66" rx="14" fill="white"/>
</g>
<path d="M347.49 84.3041L336.833 65.8416H325.169L335.826 84.3041H347.49ZM324.157 67.5916L313.5 86.0541L319.334 96.1586L329.99 77.6961L324.157 67.5916ZM327.19 86.0541L321.357 96.1586H342.669L348.5 86.0523L327.19 86.0541Z" fill="#D2B596"/>
<g filter="url(#filter3_d_1047_1069)">
<rect x="290" y="164" width="81" height="66" rx="14" fill="white"/>
</g>
<g clip-path="url(#clip2_1047_1069)">
<path d="M321.86 181.223L312.033 183.409V214.591L321.893 216.78L331.75 218.97L333.541 218.967H335.328V213.702L335.404 213.722C336.113 213.925 336.433 213.975 337.002 213.975C337.79 213.975 338.416 213.839 339.128 213.512C340.13 213.053 341.061 212.121 341.521 211.12C341.727 210.67 341.89 210.125 341.937 209.745L341.957 209.559L342.246 209.419C342.888 209.1 343.687 208.584 344.346 208.058C344.752 207.735 345.727 206.76 346.05 206.354C346.576 205.695 347.091 204.897 347.411 204.255L347.551 203.965L347.737 203.945C348.116 203.898 348.662 203.735 349.111 203.529C350.113 203.07 351.045 202.138 351.504 201.136C351.834 200.421 351.967 199.799 351.967 199C351.967 198.201 351.834 197.579 351.504 196.863C351.045 195.862 350.113 194.93 349.111 194.471C348.662 194.264 348.116 194.101 347.737 194.055L347.551 194.035L347.411 193.745C347.091 193.103 346.576 192.304 346.05 191.646C345.727 191.24 344.752 190.264 344.346 189.942C343.687 189.416 342.888 188.9 342.246 188.581L341.957 188.441L341.937 188.255C341.89 187.875 341.727 187.329 341.521 186.88C341.061 185.878 340.13 184.947 339.128 184.487C338.359 184.135 337.717 184.008 336.849 184.032C336.319 184.048 336.01 184.098 335.547 184.241C335.457 184.268 335.371 184.291 335.354 184.291C335.341 184.291 335.328 183.106 335.328 181.662V179.033L333.507 179.037L331.684 179.04L321.86 181.223ZM332 199C332 208.115 331.993 215.572 331.983 215.572C331.957 215.572 315.487 211.912 315.421 211.892C315.364 211.875 315.361 211.233 315.361 199V186.121L315.448 186.101C315.654 186.048 331.92 182.434 331.96 182.431C331.99 182.428 332 185.762 332 199ZM341.581 192.091C341.78 192.225 342.053 192.424 342.186 192.531C342.502 192.777 343.215 193.489 343.461 193.805C343.72 194.131 344.146 194.764 344.146 194.82C344.146 194.847 344.047 194.943 343.923 195.033C343.344 195.462 342.749 196.201 342.446 196.863C342.116 197.579 341.983 198.201 341.983 199C341.983 199.799 342.116 200.421 342.446 201.136C342.749 201.799 343.344 202.537 343.923 202.967C344.047 203.056 344.146 203.153 344.146 203.18C344.146 203.236 343.72 203.868 343.461 204.195C343.215 204.511 342.502 205.223 342.186 205.469C341.86 205.729 341.228 206.155 341.171 206.155C341.145 206.155 341.048 206.055 340.958 205.928C340.529 205.353 339.79 204.757 339.128 204.454C338.359 204.101 337.717 203.975 336.849 203.998C336.319 204.015 336.01 204.065 335.547 204.208C335.457 204.235 335.371 204.258 335.354 204.258C335.341 204.258 335.328 201.892 335.328 199C335.328 196.108 335.341 193.742 335.354 193.742C335.371 193.742 335.457 193.765 335.547 193.792C336.01 193.935 336.319 193.985 336.849 194.002C337.717 194.025 338.359 193.898 339.128 193.546C339.79 193.243 340.529 192.647 340.958 192.068C341.048 191.945 341.145 191.845 341.171 191.845C341.195 191.845 341.381 191.955 341.581 192.091Z" fill="#D2B596"/>
<path d="M323.318 190.684C321.81 190.76 320.506 191.137 319.521 191.782C319.135 192.035 318.576 192.584 318.323 192.957C317.963 193.496 317.747 194.082 317.654 194.764C317.597 195.183 317.634 196.141 317.717 196.504C317.92 197.366 318.306 198.028 318.975 198.661C319.604 199.26 320.296 199.672 321.617 200.245C323.141 200.9 323.64 201.16 324.12 201.552C324.735 202.055 324.968 202.674 324.759 203.266C324.529 203.929 323.747 204.341 322.569 204.428C320.958 204.544 319.258 204.018 317.953 203.003C317.853 202.924 317.75 202.86 317.73 202.86C317.7 202.86 317.69 203.293 317.69 204.654V206.448L317.996 206.581C319.091 207.057 320.283 207.276 321.933 207.31C323.011 207.33 323.537 207.3 324.323 207.166C326.855 206.737 328.356 205.396 328.639 203.303C328.699 202.86 328.665 201.805 328.576 201.413C328.323 200.278 327.677 199.409 326.509 198.631C326.113 198.364 325.128 197.865 324.279 197.503C323.028 196.963 322.346 196.574 321.947 196.175C321.67 195.895 321.561 195.709 321.497 195.399C321.454 195.18 321.454 195.127 321.497 194.92C321.73 193.789 323.417 193.28 325.544 193.696C326.279 193.842 327.204 194.191 327.717 194.518C327.823 194.587 327.923 194.641 327.94 194.641C327.963 194.641 327.97 194.052 327.967 192.953L327.957 191.266L327.567 191.14C326.396 190.77 324.875 190.604 323.318 190.684Z" fill="#D2B596"/>
</g>
<g filter="url(#filter4_d_1047_1069)">
<rect x="62" y="164" width="81" height="66" rx="14" fill="white"/>
</g>
<path d="M113.486 209.535H92.6133C91.7129 209.535 90.9805 208.803 90.9805 207.903V180.306C90.9805 179.406 91.7129 178.673 92.6133 178.673H105.379V181.048H93.3555V207.16H112.744V187.803H115.119V207.903C115.119 208.803 114.387 209.535 113.486 209.535Z" fill="#D2B596"/>
<path d="M106.971 186.199H115.135V188.574H106.971V186.199Z" fill="#D2B596"/>
<path d="M106.934 178.645H109.309V188.519H106.934V178.645Z" fill="#D2B596"/>
<path d="M107.464 180.068L109.357 178.634L115.115 186.232L113.222 187.667L107.464 180.068ZM117.997 203.945H88.0874C87.8425 203.945 87.6421 203.745 87.6421 203.5V193.3C87.6421 193.055 87.8425 192.854 88.0874 192.854H117.997C118.242 192.854 118.443 193.055 118.443 193.3V203.5C118.443 203.745 118.242 203.945 117.997 203.945Z" fill="#D2B596"/>
<path d="M93.8945 195.451H95.6555C97.616 195.451 98.8306 196.374 98.8306 198.345C98.8306 200.309 97.616 201.287 95.725 201.287H93.8946L93.8945 195.451ZM95.5774 200.348C96.7746 200.348 97.5206 199.765 97.5206 198.345C97.5206 196.918 96.7746 196.381 95.5774 196.381H95.1784V200.348H95.5774ZM100.201 198.345C100.201 196.444 101.372 195.34 103.073 195.34C104.773 195.34 105.944 196.452 105.944 198.345C105.944 200.238 104.773 201.397 103.073 201.397C101.372 201.397 100.201 200.238 100.201 198.345ZM104.634 198.345C104.634 197.091 104.027 196.342 103.073 196.342C102.118 196.342 101.511 197.091 101.511 198.345C101.511 199.591 102.118 200.388 103.073 200.388C104.027 200.388 104.634 199.591 104.634 198.345ZM107.315 198.393C107.315 196.468 108.677 195.34 110.299 195.34C111.114 195.34 111.765 195.695 112.181 196.09L111.505 196.831C111.184 196.547 110.811 196.342 110.325 196.342C109.353 196.342 108.625 197.099 108.625 198.353C108.625 199.623 109.284 200.388 110.299 200.388C110.845 200.388 111.279 200.151 111.626 199.812L112.303 200.538C111.774 201.098 111.088 201.397 110.256 201.397C108.633 201.397 107.315 200.34 107.315 198.393Z" fill="white"/>
<g filter="url(#filter5_d_1047_1069)">
<circle cx="216.5" cy="138.5" r="38.5" fill="white"/>
</g>
<path d="M199.487 137.205C199.437 137.004 199.36 136.828 199.254 136.676C199.147 136.521 199.015 136.39 198.856 136.284C198.701 136.174 198.519 136.093 198.31 136.04C198.106 135.983 197.88 135.955 197.634 135.955C197.104 135.955 196.651 136.081 196.276 136.335C195.905 136.589 195.621 136.955 195.424 137.432C195.231 137.909 195.134 138.485 195.134 139.159C195.134 139.841 195.227 140.424 195.413 140.909C195.598 141.394 195.875 141.765 196.242 142.023C196.61 142.28 197.066 142.409 197.612 142.409C198.093 142.409 198.492 142.339 198.81 142.199C199.132 142.059 199.373 141.86 199.532 141.602C199.691 141.345 199.771 141.042 199.771 140.693L200.316 140.75H197.657V138.5H202.816V140.114C202.816 141.174 202.591 142.081 202.14 142.835C201.693 143.585 201.076 144.161 200.288 144.562C199.504 144.96 198.604 145.159 197.589 145.159C196.456 145.159 195.462 144.919 194.606 144.438C193.75 143.956 193.081 143.271 192.6 142.381C192.123 141.491 191.884 140.432 191.884 139.205C191.884 138.242 192.03 137.39 192.322 136.648C192.617 135.905 193.026 135.278 193.549 134.767C194.072 134.252 194.676 133.864 195.362 133.602C196.047 133.337 196.782 133.205 197.566 133.205C198.255 133.205 198.896 133.303 199.487 133.5C200.081 133.693 200.606 133.97 201.06 134.33C201.519 134.686 201.888 135.108 202.168 135.597C202.449 136.085 202.619 136.621 202.68 137.205H199.487ZM204.289 145V133.364H209.335C210.221 133.364 210.965 133.483 211.567 133.722C212.174 133.96 212.63 134.297 212.937 134.733C213.247 135.169 213.403 135.682 213.403 136.273C213.403 136.701 213.308 137.091 213.119 137.443C212.933 137.795 212.672 138.091 212.335 138.33C211.997 138.564 211.603 138.727 211.153 138.818V138.932C211.653 138.951 212.107 139.078 212.516 139.312C212.925 139.544 213.251 139.864 213.494 140.273C213.736 140.678 213.857 141.155 213.857 141.705C213.857 142.341 213.691 142.907 213.357 143.403C213.028 143.9 212.558 144.29 211.948 144.574C211.338 144.858 210.611 145 209.766 145H204.289ZM207.448 142.477H208.925C209.456 142.477 209.853 142.379 210.119 142.182C210.384 141.981 210.516 141.686 210.516 141.295C210.516 141.023 210.454 140.792 210.329 140.602C210.204 140.413 210.026 140.269 209.795 140.17C209.567 140.072 209.293 140.023 208.971 140.023H207.448V142.477ZM207.448 138.068H208.744C209.02 138.068 209.264 138.025 209.477 137.938C209.689 137.85 209.853 137.725 209.971 137.562C210.092 137.396 210.153 137.193 210.153 136.955C210.153 136.595 210.024 136.32 209.766 136.131C209.509 135.938 209.183 135.841 208.789 135.841H207.448V138.068ZM217.454 145.136C216.897 145.136 216.405 145.045 215.977 144.864C215.552 144.678 215.219 144.398 214.977 144.023C214.734 143.648 214.613 143.17 214.613 142.591C214.613 142.114 214.694 141.706 214.857 141.369C215.02 141.028 215.247 140.75 215.539 140.534C215.831 140.318 216.17 140.153 216.556 140.04C216.946 139.926 217.367 139.852 217.817 139.818C218.306 139.78 218.698 139.735 218.994 139.682C219.293 139.625 219.509 139.547 219.641 139.449C219.774 139.347 219.84 139.212 219.84 139.045V139.023C219.84 138.795 219.753 138.621 219.579 138.5C219.405 138.379 219.181 138.318 218.908 138.318C218.609 138.318 218.365 138.384 218.175 138.517C217.99 138.646 217.878 138.845 217.84 139.114H214.954C214.992 138.583 215.16 138.095 215.46 137.648C215.763 137.197 216.204 136.837 216.783 136.568C217.363 136.295 218.086 136.159 218.954 136.159C219.579 136.159 220.139 136.233 220.636 136.381C221.132 136.525 221.554 136.727 221.903 136.989C222.251 137.246 222.516 137.549 222.698 137.898C222.884 138.242 222.977 138.617 222.977 139.023V145H220.045V143.773H219.977C219.802 144.098 219.59 144.362 219.34 144.562C219.094 144.763 218.812 144.909 218.494 145C218.179 145.091 217.833 145.136 217.454 145.136ZM218.477 143.159C218.715 143.159 218.939 143.11 219.147 143.011C219.359 142.913 219.531 142.771 219.664 142.585C219.797 142.4 219.863 142.174 219.863 141.909V141.182C219.78 141.216 219.691 141.248 219.596 141.278C219.505 141.309 219.406 141.337 219.3 141.364C219.198 141.39 219.088 141.415 218.971 141.438C218.857 141.46 218.738 141.481 218.613 141.5C218.371 141.538 218.172 141.6 218.016 141.688C217.865 141.771 217.751 141.875 217.675 142C217.603 142.121 217.567 142.258 217.567 142.409C217.567 142.652 217.653 142.837 217.823 142.966C217.994 143.095 218.211 143.159 218.477 143.159ZM232.452 139.114H229.566C229.551 138.936 229.488 138.782 229.379 138.653C229.269 138.525 229.127 138.426 228.952 138.358C228.782 138.286 228.593 138.25 228.384 138.25C228.115 138.25 227.884 138.299 227.691 138.398C227.498 138.496 227.403 138.636 227.407 138.818C227.403 138.947 227.458 139.066 227.572 139.176C227.689 139.286 227.915 139.371 228.248 139.432L230.021 139.75C230.915 139.913 231.579 140.187 232.015 140.574C232.454 140.956 232.676 141.47 232.68 142.114C232.676 142.735 232.49 143.275 232.123 143.733C231.759 144.187 231.261 144.54 230.629 144.79C230 145.036 229.282 145.159 228.475 145.159C227.142 145.159 226.098 144.886 225.344 144.341C224.594 143.795 224.176 143.076 224.089 142.182H227.202C227.244 142.458 227.38 142.672 227.612 142.824C227.846 142.972 228.142 143.045 228.498 143.045C228.786 143.045 229.022 142.996 229.208 142.898C229.397 142.799 229.494 142.659 229.498 142.477C229.494 142.311 229.411 142.178 229.248 142.08C229.089 141.981 228.839 141.902 228.498 141.841L226.952 141.568C226.062 141.413 225.396 141.117 224.952 140.682C224.509 140.246 224.29 139.686 224.293 139C224.29 138.394 224.449 137.881 224.771 137.46C225.096 137.036 225.56 136.714 226.163 136.494C226.769 136.271 227.487 136.159 228.316 136.159C229.577 136.159 230.572 136.42 231.299 136.943C232.03 137.466 232.415 138.189 232.452 139.114ZM238.063 145.159C237.131 145.159 236.328 144.981 235.654 144.625C234.984 144.265 234.467 143.75 234.103 143.08C233.743 142.405 233.563 141.598 233.563 140.659C233.563 139.758 233.745 138.97 234.109 138.295C234.472 137.621 234.986 137.097 235.648 136.722C236.311 136.347 237.094 136.159 237.995 136.159C238.654 136.159 239.251 136.261 239.785 136.466C240.319 136.67 240.775 136.968 241.154 137.358C241.533 137.744 241.825 138.214 242.029 138.767C242.234 139.32 242.336 139.943 242.336 140.636V141.364H234.54V139.636H239.45C239.446 139.386 239.381 139.167 239.256 138.977C239.135 138.784 238.97 138.634 238.762 138.528C238.558 138.419 238.325 138.364 238.063 138.364C237.809 138.364 237.576 138.419 237.364 138.528C237.152 138.634 236.982 138.782 236.853 138.972C236.728 139.161 236.662 139.383 236.654 139.636V141.5C236.654 141.78 236.713 142.03 236.83 142.25C236.948 142.47 237.116 142.642 237.336 142.767C237.556 142.892 237.821 142.955 238.131 142.955C238.347 142.955 238.544 142.924 238.722 142.864C238.904 142.803 239.059 142.716 239.188 142.602C239.317 142.485 239.412 142.345 239.472 142.182H242.336C242.237 142.788 242.004 143.314 241.637 143.761C241.27 144.205 240.783 144.549 240.177 144.795C239.575 145.038 238.87 145.159 238.063 145.159Z" fill="#D2B596"/>
</g>
</g>
<g filter="url(#filter6_d_1047_1069)">
<path d="M101.174 112.747C100.046 113.694 99.8997 115.376 100.847 116.504C101.794 117.632 103.476 117.778 104.604 116.832C105.732 115.885 105.878 114.203 104.931 113.075C103.984 111.947 102.302 111.8 101.174 112.747ZM175.285 139.458C174.157 140.405 174.011 142.087 174.957 143.215C175.904 144.343 177.586 144.489 178.714 143.542C179.842 142.595 179.989 140.913 179.042 139.785C178.095 138.657 176.413 138.511 175.285 139.458ZM102.889 141.5L102.389 141.5L102.389 142L102.889 142L102.889 141.5ZM102.389 114.789L102.389 115.743L103.389 115.743L103.389 114.789L102.389 114.789ZM102.389 117.651L102.389 119.559L103.389 119.559L103.389 117.651L102.389 117.651ZM102.389 121.467L102.389 123.375L103.389 123.375L103.389 121.467L102.389 121.467ZM102.389 125.283L102.389 127.191L103.389 127.191L103.389 125.283L102.389 125.283ZM102.389 129.099L102.389 131.007L103.389 131.007L103.389 129.099L102.389 129.099ZM102.389 132.915L102.389 134.823L103.389 134.823L103.389 132.915L102.389 132.915ZM102.389 136.731L102.389 138.638L103.389 138.638L103.389 136.731L102.389 136.731ZM102.389 140.546L102.389 141.5L103.389 141.5L103.389 140.546L102.389 140.546ZM102.889 142L103.864 142L103.864 141L102.889 141L102.889 142ZM105.814 142L107.765 142L107.765 141L105.814 141L105.814 142ZM109.715 142L111.665 142L111.665 141L109.715 141L109.715 142ZM113.616 142L115.566 142L115.566 141L113.616 141L113.616 142ZM117.516 142L119.466 142L119.466 141L117.516 141L117.516 142ZM121.417 142L123.367 142L123.367 141L121.417 141L121.417 142ZM125.317 142L127.268 142L127.268 141L125.317 141L125.317 142ZM129.218 142L131.168 142L131.168 141L129.218 141L129.218 142ZM133.118 142L135.069 142L135.069 141L133.118 141L133.118 142ZM137.019 142L138.969 142L138.969 141L137.019 141L137.019 142ZM140.92 142L142.87 142L142.87 141L140.92 141L140.92 142ZM144.82 142L146.77 142L146.77 141L144.82 141L144.82 142ZM148.721 142L150.671 142L150.671 141L148.721 141L148.721 142ZM152.621 142L154.572 142L154.572 141L152.621 141L152.621 142ZM156.522 142L158.472 142L158.472 141L156.522 141L156.522 142ZM160.422 142L162.373 142L162.373 141L160.422 141L160.422 142ZM164.323 142L166.273 142L166.273 141L164.323 141L164.323 142ZM168.224 142L170.174 142L170.174 141L168.224 141L168.224 142ZM172.124 142L174.074 142L174.074 141L172.124 141L172.124 142ZM176.025 142L177 142L177 141L176.025 141L176.025 142Z" fill="#D2B596"/>
</g>
<g filter="url(#filter7_d_1047_1069)">
<path d="M101.177 160.755C100.049 161.702 99.9024 163.384 100.849 164.512C101.796 165.64 103.478 165.787 104.606 164.84C105.734 163.893 105.881 162.211 104.934 161.083C103.987 159.955 102.305 159.808 101.177 160.755ZM175.285 139.958C174.157 140.905 174.011 142.587 174.958 143.715C175.905 144.843 177.587 144.989 178.715 144.042C179.843 143.095 179.989 141.413 179.042 140.285C178.095 139.157 176.413 139.011 175.285 139.958ZM102.892 142L102.892 141.5L102.392 141.5L102.392 142L102.892 142ZM103.392 162.798L103.392 161.758L102.392 161.758L102.392 162.798L103.392 162.798ZM103.392 159.678L103.392 157.598L102.392 157.598L102.392 159.678L103.392 159.678ZM103.392 155.518L103.392 153.439L102.392 153.439L102.392 155.518L103.392 155.518ZM103.392 151.359L103.392 149.279L102.392 149.279L102.392 151.359L103.392 151.359ZM103.392 147.199L103.392 145.119L102.392 145.119L102.392 147.199L103.392 147.199ZM103.392 143.04L103.392 142L102.392 142L102.392 143.04L103.392 143.04ZM102.892 142.5L103.867 142.5L103.867 141.5L102.892 141.5L102.892 142.5ZM105.817 142.5L107.767 142.5L107.767 141.5L105.817 141.5L105.817 142.5ZM109.717 142.5L111.668 142.5L111.668 141.5L109.717 141.5L109.717 142.5ZM113.618 142.5L115.568 142.5L115.568 141.5L113.618 141.5L113.618 142.5ZM117.518 142.5L119.469 142.5L119.469 141.5L117.518 141.5L117.518 142.5ZM121.419 142.5L123.369 142.5L123.369 141.5L121.419 141.5L121.419 142.5ZM125.319 142.5L127.269 142.5L127.269 141.5L125.319 141.5L125.319 142.5ZM129.22 142.5L131.17 142.5L131.17 141.5L129.22 141.5L129.22 142.5ZM133.12 142.5L135.07 142.5L135.07 141.5L133.12 141.5L133.12 142.5ZM137.021 142.5L138.971 142.5L138.971 141.5L137.021 141.5L137.021 142.5ZM140.921 142.5L142.871 142.5L142.871 141.5L140.921 141.5L140.921 142.5ZM144.821 142.5L146.772 142.5L146.772 141.5L144.821 141.5L144.821 142.5ZM148.722 142.5L150.672 142.5L150.672 141.5L148.722 141.5L148.722 142.5ZM152.622 142.5L154.572 142.5L154.572 141.5L152.622 141.5L152.622 142.5ZM156.523 142.5L158.473 142.5L158.473 141.5L156.523 141.5L156.523 142.5ZM160.423 142.5L162.373 142.5L162.373 141.5L160.423 141.5L160.423 142.5ZM164.324 142.5L166.274 142.5L166.274 141.5L164.324 141.5L164.324 142.5ZM168.224 142.5L170.174 142.5L170.174 141.5L168.224 141.5L168.224 142.5ZM172.124 142.5L174.075 142.5L174.075 141.5L172.124 141.5L172.124 142.5ZM176.025 142.5L177 142.5L177 141.5L176.025 141.5L176.025 142.5Z" fill="#D2B596"/>
</g>
<g filter="url(#filter8_d_1047_1069)">
<path d="M331.826 112.411C332.954 113.358 333.101 115.04 332.154 116.168C331.207 117.296 329.525 117.442 328.397 116.495C327.269 115.548 327.122 113.866 328.069 112.738C329.016 111.61 330.698 111.464 331.826 112.411ZM257.715 139.121C258.843 140.068 258.99 141.75 258.043 142.878C257.096 144.006 255.414 144.153 254.286 143.206C253.158 142.259 253.011 140.577 253.958 139.449C254.905 138.321 256.587 138.174 257.715 139.121ZM330.111 141.164L330.611 141.164L330.611 141.664L330.111 141.664L330.111 141.164ZM330.611 114.453L330.611 115.407L329.611 115.407L329.611 114.453L330.611 114.453ZM330.611 117.315L330.611 119.223L329.611 119.223L329.611 117.315L330.611 117.315ZM330.611 121.131L330.611 123.039L329.611 123.039L329.611 121.131L330.611 121.131ZM330.611 124.947L330.611 126.855L329.611 126.855L329.611 124.947L330.611 124.947ZM330.611 128.763L330.611 130.671L329.611 130.671L329.611 128.763L330.611 128.763ZM330.611 132.578L330.611 134.486L329.611 134.486L329.611 132.578L330.611 132.578ZM330.611 136.394L330.611 138.302L329.611 138.302L329.611 136.394L330.611 136.394ZM330.611 140.21L330.611 141.164L329.611 141.164L329.611 140.21L330.611 140.21ZM330.111 141.664L329.136 141.664L329.136 140.664L330.111 140.664L330.111 141.664ZM327.186 141.664L325.236 141.664L325.236 140.664L327.186 140.664L327.186 141.664ZM323.285 141.664L321.335 141.664L321.335 140.664L323.285 140.664L323.285 141.664ZM319.385 141.664L317.435 141.664L317.435 140.664L319.385 140.664L319.385 141.664ZM315.484 141.664L313.534 141.664L313.534 140.664L315.484 140.664L315.484 141.664ZM311.584 141.664L309.633 141.664L309.633 140.664L311.584 140.664L311.584 141.664ZM307.683 141.664L305.733 141.664L305.733 140.664L307.683 140.664L307.683 141.664ZM303.783 141.664L301.832 141.664L301.832 140.664L303.783 140.664L303.783 141.664ZM299.882 141.664L297.932 141.664L297.932 140.664L299.882 140.664L299.882 141.664ZM295.981 141.664L294.031 141.664L294.031 140.664L295.981 140.664L295.981 141.664ZM292.081 141.664L290.131 141.664L290.131 140.664L292.081 140.664L292.081 141.664ZM288.18 141.664L286.23 141.664L286.23 140.664L288.18 140.664L288.18 141.664ZM284.28 141.664L282.329 141.664L282.329 140.664L284.28 140.664L284.28 141.664ZM280.379 141.664L278.429 141.664L278.429 140.664L280.379 140.664L280.379 141.664ZM276.479 141.664L274.528 141.664L274.528 140.664L276.479 140.664L276.479 141.664ZM272.578 141.664L270.628 141.664L270.628 140.664L272.578 140.664L272.578 141.664ZM268.677 141.664L266.727 141.664L266.727 140.664L268.677 140.664L268.677 141.664ZM264.777 141.664L262.827 141.664L262.827 140.664L264.777 140.664L264.777 141.664ZM260.876 141.664L258.926 141.664L258.926 140.664L260.876 140.664L260.876 141.664ZM256.976 141.664L256.001 141.664L256.001 140.664L256.976 140.664L256.976 141.664Z" fill="#D2B596"/>
</g>
<g filter="url(#filter9_d_1047_1069)">
<path d="M331.823 160.419C332.951 161.366 333.098 163.048 332.151 164.176C331.204 165.304 329.522 165.451 328.394 164.504C327.266 163.557 327.119 161.875 328.066 160.747C329.013 159.619 330.695 159.472 331.823 160.419ZM257.715 139.621C258.843 140.568 258.99 142.25 258.043 143.378C257.096 144.506 255.414 144.653 254.286 143.706C253.158 142.759 253.011 141.077 253.958 139.949C254.905 138.821 256.587 138.675 257.715 139.621ZM330.109 141.663L330.109 141.163L330.609 141.163L330.609 141.663L330.109 141.663ZM329.609 162.461L329.609 161.422L330.609 161.422L330.609 162.461L329.609 162.461ZM329.609 159.342L329.609 157.262L330.609 157.262L330.609 159.342L329.609 159.342ZM329.609 155.182L329.609 153.102L330.609 153.102L330.609 155.182L329.609 155.182ZM329.609 151.023L329.609 148.943L330.609 148.943L330.609 151.023L329.609 151.023ZM329.609 146.863L329.609 144.783L330.609 144.783L330.609 146.863L329.609 146.863ZM329.609 142.703L329.609 141.663L330.609 141.663L330.609 142.703L329.609 142.703ZM330.109 142.163L329.134 142.163L329.134 141.163L330.109 141.163L330.109 142.163ZM327.184 142.163L325.233 142.163L325.233 141.163L327.183 141.163L327.184 142.163ZM323.283 142.164L321.333 142.164L321.333 141.164L323.283 141.164L323.283 142.164ZM319.383 142.164L317.432 142.164L317.432 141.164L319.383 141.164L319.383 142.164ZM315.482 142.164L313.532 142.164L313.532 141.164L315.482 141.164L315.482 142.164ZM311.582 142.164L309.632 142.164L309.632 141.164L311.582 141.164L311.582 142.164ZM307.681 142.164L305.731 142.164L305.731 141.164L307.681 141.164L307.681 142.164ZM303.781 142.164L301.831 142.164L301.831 141.164L303.781 141.164L303.781 142.164ZM299.88 142.164L297.93 142.164L297.93 141.164L299.88 141.164L299.88 142.164ZM295.98 142.164L294.03 142.164L294.03 141.164L295.98 141.164L295.98 142.164ZM292.08 142.164L290.129 142.164L290.129 141.164L292.08 141.164L292.08 142.164ZM288.179 142.164L286.229 142.164L286.229 141.164L288.179 141.164L288.179 142.164ZM284.279 142.164L282.328 142.164L282.328 141.164L284.279 141.164L284.279 142.164ZM280.378 142.164L278.428 142.164L278.428 141.164L280.378 141.164L280.378 142.164ZM276.478 142.164L274.528 142.164L274.528 141.164L276.478 141.164L276.478 142.164ZM272.577 142.164L270.627 142.164L270.627 141.164L272.577 141.164L272.577 142.164ZM268.677 142.164L266.727 142.164L266.727 141.164L268.677 141.164L268.677 142.164ZM264.776 142.164L262.826 142.164L262.826 141.164L264.776 141.164L264.776 142.164ZM260.876 142.164L258.926 142.164L258.926 141.164L260.876 141.164L260.876 142.164ZM256.976 142.164L256 142.164L256 141.164L256.976 141.164L256.976 142.164Z" fill="#D2B596"/>
</g>
<defs>
<filter id="filter0_ddd_1047_1069" x="0.75" y="0" width="432.5" height="296.25" filterUnits="userSpaceOnUse" color-interpolation-filters="sRGB">
<feFlood flood-opacity="0" result="BackgroundImageFix"/>
<feColorMatrix in="SourceAlpha" type="matrix" values="0 0 0 0 0 0 0 0 0 0 0 0 0 0 0 0 0 0 127 0" result="hardAlpha"/>
<feMorphology radius="3.75" operator="erode" in="SourceAlpha" result="effect1_dropShadow_1047_1069"/>
<feOffset dy="10"/>
<feGaussianBlur stdDeviation="5"/>
<feComposite in2="hardAlpha" operator="out"/>
<feColorMatrix type="matrix" values="0 0 0 0 0 0 0 0 0 0 0 0 0 0 0 0 0 0 0.03 0"/>
<feBlend mode="normal" in2="BackgroundImageFix" result="effect1_dropShadow_1047_1069"/>
<feColorMatrix in="SourceAlpha" type="matrix" values="0 0 0 0 0 0 0 0 0 0 0 0 0 0 0 0 0 0 127 0" result="hardAlpha"/>
<feMorphology radius="2.5" operator="erode" in="SourceAlpha" result="effect2_dropShadow_1047_1069"/>
<feOffset dy="2.28853"/>
<feGaussianBlur stdDeviation="1.14427"/>
<feComposite in2="hardAlpha" operator="out"/>
<feColorMatrix type="matrix" values="0 0 0 0 0 0 0 0 0 0 0 0 0 0 0 0 0 0 0.075 0"/>
<feBlend mode="normal" in2="effect1_dropShadow_1047_1069" result="effect2_dropShadow_1047_1069"/>
<feColorMatrix in="SourceAlpha" type="matrix" values="0 0 0 0 0 0 0 0 0 0 0 0 0 0 0 0 0 0 127 0" result="hardAlpha"/>
<feMorphology radius="1.25" operator="erode" in="SourceAlpha" result="effect3_dropShadow_1047_1069"/>
<feOffset dy="0.602187"/>
<feGaussianBlur stdDeviation="0.301093"/>
<feComposite in2="hardAlpha" operator="out"/>
<feColorMatrix type="matrix" values="0 0 0 0 0 0 0 0 0 0 0 0 0 0 0 0 0 0 0.09 0"/>
<feBlend mode="normal" in2="effect2_dropShadow_1047_1069" result="effect3_dropShadow_1047_1069"/>
<feBlend mode="normal" in="SourceGraphic" in2="effect3_dropShadow_1047_1069" result="shape"/>
</filter>
<filter id="filter1_d_1047_1069" x="51.6" y="40.6" width="101.8" height="86.8" filterUnits="userSpaceOnUse" color-interpolation-filters="sRGB">
<feFlood flood-opacity="0" result="BackgroundImageFix"/>
<feColorMatrix in="SourceAlpha" type="matrix" values="0 0 0 0 0 0 0 0 0 0 0 0 0 0 0 0 0 0 127 0" result="hardAlpha"/>
<feOffset dy="2"/>
<feGaussianBlur stdDeviation="5.2"/>
<feComposite in2="hardAlpha" operator="out"/>
<feColorMatrix type="matrix" values="0 0 0 0 0 0 0 0 0 0 0 0 0 0 0 0 0 0 0.17 0"/>
<feBlend mode="normal" in2="BackgroundImageFix" result="effect1_dropShadow_1047_1069"/>
<feBlend mode="normal" in="SourceGraphic" in2="effect1_dropShadow_1047_1069" result="shape"/>
</filter>
<filter id="filter2_d_1047_1069" x="279.6" y="39.6" width="101.8" height="86.8" filterUnits="userSpaceOnUse" color-interpolation-filters="sRGB">
<feFlood flood-opacity="0" result="BackgroundImageFix"/>
<feColorMatrix in="SourceAlpha" type="matrix" values="0 0 0 0 0 0 0 0 0 0 0 0 0 0 0 0 0 0 127 0" result="hardAlpha"/>
<feOffset dy="2"/>
<feGaussianBlur stdDeviation="5.2"/>
<feComposite in2="hardAlpha" operator="out"/>
<feColorMatrix type="matrix" values="0 0 0 0 0 0 0 0 0 0 0 0 0 0 0 0 0 0 0.17 0"/>
<feBlend mode="normal" in2="BackgroundImageFix" result="effect1_dropShadow_1047_1069"/>
<feBlend mode="normal" in="SourceGraphic" in2="effect1_dropShadow_1047_1069" result="shape"/>
</filter>
<filter id="filter3_d_1047_1069" x="279.6" y="155.6" width="101.8" height="86.8" filterUnits="userSpaceOnUse" color-interpolation-filters="sRGB">
<feFlood flood-opacity="0" result="BackgroundImageFix"/>
<feColorMatrix in="SourceAlpha" type="matrix" values="0 0 0 0 0 0 0 0 0 0 0 0 0 0 0 0 0 0 127 0" result="hardAlpha"/>
<feOffset dy="2"/>
<feGaussianBlur stdDeviation="5.2"/>
<feComposite in2="hardAlpha" operator="out"/>
<feColorMatrix type="matrix" values="0 0 0 0 0 0 0 0 0 0 0 0 0 0 0 0 0 0 0.17 0"/>
<feBlend mode="normal" in2="BackgroundImageFix" result="effect1_dropShadow_1047_1069"/>
<feBlend mode="normal" in="SourceGraphic" in2="effect1_dropShadow_1047_1069" result="shape"/>
</filter>
<filter id="filter4_d_1047_1069" x="51.6" y="155.6" width="101.8" height="86.8" filterUnits="userSpaceOnUse" color-interpolation-filters="sRGB">
<feFlood flood-opacity="0" result="BackgroundImageFix"/>
<feColorMatrix in="SourceAlpha" type="matrix" values="0 0 0 0 0 0 0 0 0 0 0 0 0 0 0 0 0 0 127 0" result="hardAlpha"/>
<feOffset dy="2"/>
<feGaussianBlur stdDeviation="5.2"/>
<feComposite in2="hardAlpha" operator="out"/>
<feColorMatrix type="matrix" values="0 0 0 0 0 0 0 0 0 0 0 0 0 0 0 0 0 0 0.17 0"/>
<feBlend mode="normal" in2="BackgroundImageFix" result="effect1_dropShadow_1047_1069"/>
<feBlend mode="normal" in="SourceGraphic" in2="effect1_dropShadow_1047_1069" result="shape"/>
</filter>
<filter id="filter5_d_1047_1069" x="167.6" y="91.6" width="97.8" height="97.8" filterUnits="userSpaceOnUse" color-interpolation-filters="sRGB">
<feFlood flood-opacity="0" result="BackgroundImageFix"/>
<feColorMatrix in="SourceAlpha" type="matrix" values="0 0 0 0 0 0 0 0 0 0 0 0 0 0 0 0 0 0 127 0" result="hardAlpha"/>
<feOffset dy="2"/>
<feGaussianBlur stdDeviation="5.2"/>
<feComposite in2="hardAlpha" operator="out"/>
<feColorMatrix type="matrix" values="0 0 0 0 0 0 0 0 0 0 0 0 0 0 0 0 0 0 0.17 0"/>
<feBlend mode="normal" in2="BackgroundImageFix" result="effect1_dropShadow_1047_1069"/>
<feBlend mode="normal" in="SourceGraphic" in2="effect1_dropShadow_1047_1069" result="shape"/>
</filter>
<filter id="filter6_d_1047_1069" x="89.8222" y="103.723" width="100.244" height="52.8442" filterUnits="userSpaceOnUse" color-interpolation-filters="sRGB">
<feFlood flood-opacity="0" result="BackgroundImageFix"/>
<feColorMatrix in="SourceAlpha" type="matrix" values="0 0 0 0 0 0 0 0 0 0 0 0 0 0 0 0 0 0 127 0" result="hardAlpha"/>
<feOffset dy="2"/>
<feGaussianBlur stdDeviation="5.2"/>
<feComposite in2="hardAlpha" operator="out"/>
<feColorMatrix type="matrix" values="0 0 0 0 0 0 0 0 0 0 0 0 0 0 0 0 0 0 0.17 0"/>
<feBlend mode="normal" in2="BackgroundImageFix" result="effect1_dropShadow_1047_1069"/>
<feBlend mode="normal" in="SourceGraphic" in2="effect1_dropShadow_1047_1069" result="shape"/>
</filter>
<filter id="filter7_d_1047_1069" x="89.8251" y="130.933" width="100.241" height="46.9311" filterUnits="userSpaceOnUse" color-interpolation-filters="sRGB">
<feFlood flood-opacity="0" result="BackgroundImageFix"/>
<feColorMatrix in="SourceAlpha" type="matrix" values="0 0 0 0 0 0 0 0 0 0 0 0 0 0 0 0 0 0 127 0" result="hardAlpha"/>
<feOffset dy="2"/>
<feGaussianBlur stdDeviation="5.2"/>
<feComposite in2="hardAlpha" operator="out"/>
<feColorMatrix type="matrix" values="0 0 0 0 0 0 0 0 0 0 0 0 0 0 0 0 0 0 0.17 0"/>
<feBlend mode="normal" in2="BackgroundImageFix" result="effect1_dropShadow_1047_1069"/>
<feBlend mode="normal" in="SourceGraphic" in2="effect1_dropShadow_1047_1069" result="shape"/>
</filter>
<filter id="filter8_d_1047_1069" x="242.934" y="103.386" width="100.244" height="52.8442" filterUnits="userSpaceOnUse" color-interpolation-filters="sRGB">
<feFlood flood-opacity="0" result="BackgroundImageFix"/>
<feColorMatrix in="SourceAlpha" type="matrix" values="0 0 0 0 0 0 0 0 0 0 0 0 0 0 0 0 0 0 127 0" result="hardAlpha"/>
<feOffset dy="2"/>
<feGaussianBlur stdDeviation="5.2"/>
<feComposite in2="hardAlpha" operator="out"/>
<feColorMatrix type="matrix" values="0 0 0 0 0 0 0 0 0 0 0 0 0 0 0 0 0 0 0.17 0"/>
<feBlend mode="normal" in2="BackgroundImageFix" result="effect1_dropShadow_1047_1069"/>
<feBlend mode="normal" in="SourceGraphic" in2="effect1_dropShadow_1047_1069" result="shape"/>
</filter>
<filter id="filter9_d_1047_1069" x="242.934" y="130.597" width="100.241" height="46.9311" filterUnits="userSpaceOnUse" color-interpolation-filters="sRGB">
<feFlood flood-opacity="0" result="BackgroundImageFix"/>
<feColorMatrix in="SourceAlpha" type="matrix" values="0 0 0 0 0 0 0 0 0 0 0 0 0 0 0 0 0 0 127 0" result="hardAlpha"/>
<feOffset dy="2"/>
<feGaussianBlur stdDeviation="5.2"/>
<feComposite in2="hardAlpha" operator="out"/>
<feColorMatrix type="matrix" values="0 0 0 0 0 0 0 0 0 0 0 0 0 0 0 0 0 0 0.17 0"/>
<feBlend mode="normal" in2="BackgroundImageFix" result="effect1_dropShadow_1047_1069"/>
<feBlend mode="normal" in="SourceGraphic" in2="effect1_dropShadow_1047_1069" result="shape"/>
</filter>
<clipPath id="clip0_1047_1069">
<rect x="7" width="420" height="280" rx="14" fill="white"/>
</clipPath>
<clipPath id="clip1_1047_1069">
<rect width="35" height="35" fill="white" transform="translate(85 64)"/>
</clipPath>
<clipPath id="clip2_1047_1069">
<rect width="40" height="40" fill="white" transform="translate(312 179)"/>
</clipPath>
</defs>
</svg>
