<svg width="434" height="297" viewBox="0 0 434 297" fill="none" xmlns="http://www.w3.org/2000/svg">
<g opacity="0.999951" filter="url(#filter0_ddd_1047_1159)">
<g clip-path="url(#clip0_1047_1159)">
<rect x="7" width="420" height="280" rx="14" fill="#FBF3F1"/>
<line x1="229" y1="124.5" x2="279" y2="124.5" stroke="#D2B596" stroke-opacity="0.64"/>
<path d="M180.792 208.545C180.792 208.545 213.463 214.234 231.5 206C248.582 198.202 265.5 172 265.5 172" stroke="#D2B596" stroke-opacity="0.45"/>
<path d="M183 71.5C183 71.5 212.5 55 231.708 62.8836C249.08 70.0132 269.5 106.5 269.5 106.5" stroke="#D2B596" stroke-opacity="0.45"/>
<rect x="7.5" y="0.5" width="419" height="279" rx="23.5" stroke="black" stroke-opacity="0.02"/>
<g filter="url(#filter1_d_1047_1159)">
<rect x="58" y="42" width="140" height="67" rx="12" fill="white"/>
</g>
<path d="M72.5712 56.856V71.428H74.5729L88.2855 71.4275V73.1417H73.4284C72.7464 73.1417 72.0923 72.8708 71.6101 72.3886C71.1279 71.9064 70.8569 71.2523 70.8569 70.5703V56.856H72.5712ZM85.6855 54.8572L89.9278 59.1L88.7158 60.3115L86.5712 58.1675V58.1766C86.5712 63.5457 82.1386 67.8989 76.6455 67.9972L76.4558 67.9989H74.2855V66.2846H76.4558C81.1015 66.2846 84.8569 62.648 84.8569 58.176V58.1092L82.8569 60.1097L81.6449 58.8983L85.6849 54.8572H85.6855Z" fill="#D2B596"/>
<path d="M101.651 69H100.358L104.097 58.8182H105.369L109.108 69H107.815L104.773 60.429H104.693L101.651 69ZM102.128 65.0227H107.338V66.1165H102.128V65.0227ZM111.708 64.4062V69H110.535V61.3636H111.668V62.5568H111.768C111.947 62.169 112.219 61.8575 112.583 61.6222C112.948 61.3835 113.418 61.2642 113.995 61.2642C114.512 61.2642 114.964 61.3703 115.352 61.5824C115.74 61.7912 116.042 62.1094 116.257 62.5369C116.473 62.9612 116.58 63.4981 116.58 64.1477V69H115.407V64.2273C115.407 63.6274 115.251 63.16 114.94 62.8253C114.628 62.4872 114.201 62.3182 113.657 62.3182C113.282 62.3182 112.948 62.3994 112.653 62.5618C112.361 62.7242 112.131 62.9612 111.962 63.2727C111.793 63.5843 111.708 63.9621 111.708 64.4062ZM120.971 69.179C120.488 69.179 120.048 69.0878 119.654 68.9055C119.26 68.7199 118.946 68.4531 118.714 68.1051C118.482 67.7538 118.366 67.3295 118.366 66.8324C118.366 66.3949 118.452 66.0402 118.625 65.7685C118.797 65.4934 119.028 65.2779 119.316 65.1222C119.604 64.9664 119.922 64.8504 120.27 64.7741C120.622 64.6946 120.975 64.6316 121.329 64.5852C121.793 64.5256 122.17 64.4808 122.458 64.451C122.75 64.4179 122.962 64.3632 123.094 64.2869C123.23 64.2107 123.298 64.0781 123.298 63.8892V63.8494C123.298 63.3589 123.164 62.9777 122.895 62.706C122.63 62.4342 122.228 62.2983 121.687 62.2983C121.127 62.2983 120.688 62.4209 120.37 62.6662C120.052 62.9115 119.828 63.1733 119.699 63.4517L118.585 63.054C118.784 62.59 119.049 62.2287 119.381 61.9702C119.715 61.7083 120.08 61.526 120.474 61.4233C120.872 61.3172 121.263 61.2642 121.648 61.2642C121.893 61.2642 122.175 61.294 122.493 61.3537C122.814 61.41 123.124 61.5277 123.422 61.7067C123.724 61.8857 123.974 62.1558 124.173 62.517C124.372 62.8783 124.471 63.3622 124.471 63.9688V69H123.298V67.9659H123.238C123.159 68.1316 123.026 68.3089 122.841 68.4979C122.655 68.6868 122.408 68.8475 122.1 68.9801C121.792 69.1127 121.416 69.179 120.971 69.179ZM121.15 68.125C121.614 68.125 122.006 68.0339 122.324 67.8516C122.645 67.6693 122.887 67.4339 123.05 67.1456C123.215 66.8572 123.298 66.554 123.298 66.2358V65.1619C123.248 65.2216 123.139 65.2763 122.97 65.326C122.804 65.3724 122.612 65.4138 122.393 65.4503C122.178 65.4834 121.967 65.5133 121.762 65.5398C121.56 65.563 121.396 65.5829 121.27 65.5994C120.965 65.6392 120.68 65.7038 120.415 65.7933C120.153 65.8795 119.941 66.0104 119.778 66.1861C119.619 66.3584 119.54 66.5937 119.54 66.892C119.54 67.2997 119.69 67.608 119.992 67.8168C120.297 68.0223 120.683 68.125 121.15 68.125ZM127.786 58.8182V69H126.613V58.8182H127.786ZM130.691 71.8636C130.492 71.8636 130.315 71.8471 130.159 71.8139C130.003 71.7841 129.895 71.7543 129.836 71.7244L130.134 70.6903C130.419 70.7633 130.671 70.7898 130.89 70.7699C131.108 70.75 131.302 70.6522 131.471 70.4766C131.644 70.3042 131.801 70.0241 131.944 69.6364L132.162 69.0398L129.339 61.3636H130.611L132.719 67.4489H132.799L134.907 61.3636H136.18L132.938 70.1136C132.792 70.508 132.612 70.8345 132.396 71.093C132.181 71.3549 131.93 71.5488 131.645 71.6747C131.364 71.8007 131.046 71.8636 130.691 71.8636ZM143.137 63.0739L142.083 63.3722C142.017 63.1965 141.919 63.0258 141.79 62.8601C141.664 62.6911 141.492 62.5518 141.273 62.4425C141.054 62.3331 140.774 62.2784 140.433 62.2784C139.965 62.2784 139.576 62.3861 139.264 62.6016C138.956 62.8137 138.802 63.0838 138.802 63.4119C138.802 63.7036 138.908 63.9339 139.12 64.103C139.332 64.272 139.664 64.4129 140.115 64.5256L141.248 64.804C141.931 64.9697 142.44 65.2232 142.774 65.5646C143.109 65.9027 143.276 66.3385 143.276 66.8722C143.276 67.3097 143.151 67.7008 142.899 68.0455C142.65 68.3902 142.302 68.6619 141.855 68.8608C141.407 69.0597 140.887 69.1591 140.294 69.1591C139.515 69.1591 138.87 68.9901 138.36 68.652C137.849 68.3139 137.526 67.8201 137.39 67.1705L138.504 66.892C138.61 67.303 138.81 67.6113 139.105 67.8168C139.404 68.0223 139.793 68.125 140.274 68.125C140.82 68.125 141.255 68.009 141.576 67.777C141.901 67.5417 142.063 67.2599 142.063 66.9318C142.063 66.6667 141.971 66.4446 141.785 66.2656C141.599 66.0833 141.314 65.9474 140.93 65.858L139.657 65.5597C138.958 65.3939 138.444 65.1371 138.116 64.7891C137.791 64.4377 137.629 63.9986 137.629 63.4716C137.629 63.0407 137.75 62.6596 137.992 62.3281C138.237 61.9967 138.57 61.7365 138.991 61.5476C139.415 61.3587 139.896 61.2642 140.433 61.2642C141.188 61.2642 141.782 61.4299 142.213 61.7614C142.647 62.0928 142.955 62.5303 143.137 63.0739ZM145.043 69V61.3636H146.216V69H145.043ZM145.639 60.0909C145.411 60.0909 145.213 60.013 145.048 59.8572C144.885 59.7015 144.804 59.5142 144.804 59.2955C144.804 59.0767 144.885 58.8894 145.048 58.7337C145.213 58.5779 145.411 58.5 145.639 58.5C145.868 58.5 146.063 58.5779 146.226 58.7337C146.392 58.8894 146.474 59.0767 146.474 59.2955C146.474 59.5142 146.392 59.7015 146.226 59.8572C146.063 60.013 145.868 60.0909 145.639 60.0909ZM153.774 63.0739L152.72 63.3722C152.654 63.1965 152.556 63.0258 152.427 62.8601C152.301 62.6911 152.128 62.5518 151.91 62.4425C151.691 62.3331 151.411 62.2784 151.069 62.2784C150.602 62.2784 150.213 62.3861 149.901 62.6016C149.593 62.8137 149.439 63.0838 149.439 63.4119C149.439 63.7036 149.545 63.9339 149.757 64.103C149.969 64.272 150.3 64.4129 150.751 64.5256L151.885 64.804C152.568 64.9697 153.076 65.2232 153.411 65.5646C153.746 65.9027 153.913 66.3385 153.913 66.8722C153.913 67.3097 153.787 67.7008 153.535 68.0455C153.287 68.3902 152.939 68.6619 152.491 68.8608C152.044 69.0597 151.523 69.1591 150.93 69.1591C150.151 69.1591 149.507 68.9901 148.996 68.652C148.486 68.3139 148.163 67.8201 148.027 67.1705L149.14 66.892C149.247 67.303 149.447 67.6113 149.742 67.8168C150.04 68.0223 150.43 68.125 150.91 68.125C151.457 68.125 151.891 68.009 152.213 67.777C152.538 67.5417 152.7 67.2599 152.7 66.9318C152.7 66.6667 152.607 66.4446 152.422 66.2656C152.236 66.0833 151.951 65.9474 151.567 65.858L150.294 65.5597C149.595 65.3939 149.081 65.1371 148.753 64.7891C148.428 64.4377 148.265 63.9986 148.265 63.4716C148.265 63.0407 148.386 62.6596 148.628 62.3281C148.874 61.9967 149.207 61.7365 149.628 61.5476C150.052 61.3587 150.532 61.2642 151.069 61.2642C151.825 61.2642 152.418 61.4299 152.849 61.7614C153.283 62.0928 153.592 62.5303 153.774 63.0739Z" fill="black"/>
<rect opacity="0.63" x="96" y="76" width="44" height="9" rx="4" fill="#D9D9D9"/>
<rect opacity="0.63" x="96" y="91" width="77" height="9" rx="4" fill="#D9D9D9"/>
<g filter="url(#filter2_d_1047_1159)">
<rect x="83" y="88" width="155" height="67" rx="12" fill="white"/>
</g>
<path d="M126.233 104.818H127.705L131.165 113.27H131.284L134.744 104.818H136.216V115H135.062V107.264H134.963L131.781 115H130.668L127.486 107.264H127.386V115H126.233V104.818ZM140.776 115.179C140.292 115.179 139.853 115.088 139.459 114.906C139.064 114.72 138.751 114.453 138.519 114.105C138.287 113.754 138.171 113.33 138.171 112.832C138.171 112.395 138.257 112.04 138.43 111.768C138.602 111.493 138.832 111.278 139.121 111.122C139.409 110.966 139.727 110.85 140.075 110.774C140.426 110.695 140.779 110.632 141.134 110.585C141.598 110.526 141.974 110.481 142.263 110.451C142.554 110.418 142.766 110.363 142.899 110.287C143.035 110.211 143.103 110.078 143.103 109.889V109.849C143.103 109.359 142.969 108.978 142.7 108.706C142.435 108.434 142.032 108.298 141.492 108.298C140.932 108.298 140.493 108.421 140.175 108.666C139.856 108.911 139.633 109.173 139.503 109.452L138.39 109.054C138.589 108.59 138.854 108.229 139.185 107.97C139.52 107.708 139.885 107.526 140.279 107.423C140.677 107.317 141.068 107.264 141.452 107.264C141.698 107.264 141.979 107.294 142.297 107.354C142.619 107.41 142.929 107.528 143.227 107.707C143.529 107.886 143.779 108.156 143.978 108.517C144.177 108.878 144.276 109.362 144.276 109.969V115H143.103V113.966H143.043C142.964 114.132 142.831 114.309 142.645 114.498C142.46 114.687 142.213 114.848 141.905 114.98C141.596 115.113 141.22 115.179 140.776 115.179ZM140.955 114.125C141.419 114.125 141.81 114.034 142.128 113.852C142.45 113.669 142.692 113.434 142.854 113.146C143.02 112.857 143.103 112.554 143.103 112.236V111.162C143.053 111.222 142.944 111.276 142.775 111.326C142.609 111.372 142.417 111.414 142.198 111.45C141.983 111.483 141.772 111.513 141.567 111.54C141.364 111.563 141.2 111.583 141.074 111.599C140.769 111.639 140.484 111.704 140.219 111.793C139.957 111.879 139.745 112.01 139.583 112.186C139.424 112.358 139.344 112.594 139.344 112.892C139.344 113.3 139.495 113.608 139.797 113.817C140.102 114.022 140.488 114.125 140.955 114.125ZM146.418 115V107.364H147.551V108.517H147.631C147.77 108.139 148.022 107.833 148.386 107.597C148.751 107.362 149.162 107.244 149.619 107.244C149.705 107.244 149.813 107.246 149.942 107.249C150.072 107.253 150.17 107.258 150.236 107.264V108.457C150.196 108.447 150.105 108.433 149.962 108.413C149.823 108.389 149.676 108.378 149.52 108.378C149.149 108.378 148.817 108.456 148.526 108.612C148.237 108.764 148.009 108.976 147.839 109.248C147.674 109.516 147.591 109.823 147.591 110.168V115H146.418ZM152.72 112.216L152.7 110.764H152.939L156.28 107.364H157.732L154.172 110.963H154.073L152.72 112.216ZM151.627 115V104.818H152.8V115H151.627ZM156.479 115L153.496 111.222L154.331 110.406L157.97 115H156.479ZM162.129 115.159C161.393 115.159 160.759 114.997 160.225 114.672C159.695 114.344 159.285 113.886 158.997 113.3C158.712 112.71 158.569 112.024 158.569 111.241C158.569 110.459 158.712 109.77 158.997 109.173C159.285 108.573 159.686 108.106 160.2 107.771C160.717 107.433 161.32 107.264 162.01 107.264C162.407 107.264 162.8 107.33 163.188 107.463C163.576 107.596 163.929 107.811 164.247 108.109C164.565 108.404 164.819 108.795 165.008 109.283C165.197 109.77 165.291 110.37 165.291 111.082V111.58H159.405V110.565H164.098C164.098 110.134 164.012 109.75 163.839 109.412C163.67 109.074 163.428 108.807 163.113 108.612C162.802 108.416 162.434 108.318 162.01 108.318C161.542 108.318 161.138 108.434 160.797 108.666C160.459 108.895 160.198 109.193 160.016 109.561C159.834 109.929 159.743 110.323 159.743 110.744V111.42C159.743 111.997 159.842 112.486 160.041 112.887C160.243 113.285 160.523 113.588 160.881 113.797C161.239 114.002 161.655 114.105 162.129 114.105C162.437 114.105 162.716 114.062 162.964 113.976C163.216 113.886 163.433 113.754 163.616 113.578C163.798 113.399 163.939 113.177 164.038 112.912L165.172 113.23C165.052 113.615 164.852 113.953 164.57 114.244C164.288 114.533 163.94 114.758 163.526 114.92C163.112 115.08 162.646 115.159 162.129 115.159ZM170.397 107.364V108.358H166.439V107.364H170.397ZM167.593 105.534H168.766V112.812C168.766 113.144 168.814 113.393 168.91 113.558C169.01 113.721 169.136 113.83 169.288 113.886C169.444 113.939 169.608 113.966 169.78 113.966C169.91 113.966 170.016 113.959 170.099 113.946C170.181 113.929 170.248 113.916 170.297 113.906L170.536 114.96C170.456 114.99 170.345 115.02 170.203 115.05C170.06 115.083 169.88 115.099 169.661 115.099C169.33 115.099 169.005 115.028 168.687 114.886C168.372 114.743 168.11 114.526 167.901 114.234C167.696 113.943 167.593 113.575 167.593 113.131V105.534ZM175.702 105.912V104.818H183.338V105.912H180.136V115H178.903V105.912H175.702ZM184.289 115V107.364H185.422V108.517H185.502C185.641 108.139 185.893 107.833 186.257 107.597C186.622 107.362 187.033 107.244 187.49 107.244C187.577 107.244 187.684 107.246 187.814 107.249C187.943 107.253 188.041 107.258 188.107 107.264V108.457C188.067 108.447 187.976 108.433 187.833 108.413C187.694 108.389 187.547 108.378 187.391 108.378C187.02 108.378 186.688 108.456 186.397 108.612C186.108 108.764 185.88 108.976 185.711 109.248C185.545 109.516 185.462 109.823 185.462 110.168V115H184.289ZM192.467 115.159C191.731 115.159 191.096 114.997 190.563 114.672C190.033 114.344 189.623 113.886 189.335 113.3C189.05 112.71 188.907 112.024 188.907 111.241C188.907 110.459 189.05 109.77 189.335 109.173C189.623 108.573 190.024 108.106 190.538 107.771C191.055 107.433 191.658 107.264 192.348 107.264C192.745 107.264 193.138 107.33 193.526 107.463C193.914 107.596 194.267 107.811 194.585 108.109C194.903 108.404 195.157 108.795 195.346 109.283C195.534 109.77 195.629 110.37 195.629 111.082V111.58H189.743V110.565H194.436C194.436 110.134 194.35 109.75 194.177 109.412C194.008 109.074 193.766 108.807 193.451 108.612C193.14 108.416 192.772 108.318 192.348 108.318C191.88 108.318 191.476 108.434 191.135 108.666C190.797 108.895 190.536 109.193 190.354 109.561C190.172 109.929 190.081 110.323 190.081 110.744V111.42C190.081 111.997 190.18 112.486 190.379 112.887C190.581 113.285 190.861 113.588 191.219 113.797C191.577 114.002 191.993 114.105 192.467 114.105C192.775 114.105 193.054 114.062 193.302 113.976C193.554 113.886 193.771 113.754 193.953 113.578C194.136 113.399 194.277 113.177 194.376 112.912L195.51 113.23C195.39 113.615 195.19 113.953 194.908 114.244C194.626 114.533 194.278 114.758 193.864 114.92C193.45 115.08 192.984 115.159 192.467 115.159ZM198.587 110.406V115H197.414V107.364H198.547V108.557H198.647C198.826 108.169 199.097 107.857 199.462 107.622C199.827 107.384 200.297 107.264 200.874 107.264C201.391 107.264 201.843 107.37 202.231 107.582C202.619 107.791 202.921 108.109 203.136 108.537C203.351 108.961 203.459 109.498 203.459 110.148V115H202.286V110.227C202.286 109.627 202.13 109.16 201.819 108.825C201.507 108.487 201.079 108.318 200.536 108.318C200.161 108.318 199.827 108.399 199.532 108.562C199.24 108.724 199.01 108.961 198.841 109.273C198.672 109.584 198.587 109.962 198.587 110.406ZM208.487 115.159C207.85 115.159 207.289 114.998 206.801 114.677C206.314 114.352 205.933 113.895 205.658 113.305C205.383 112.711 205.245 112.01 205.245 111.202C205.245 110.4 205.383 109.704 205.658 109.114C205.933 108.524 206.316 108.068 206.806 107.746C207.297 107.425 207.864 107.264 208.507 107.264C209.004 107.264 209.396 107.347 209.685 107.513C209.977 107.675 210.199 107.861 210.351 108.07C210.507 108.275 210.628 108.444 210.714 108.577H210.813V104.818H211.987V115H210.853V113.827H210.714C210.628 113.966 210.505 114.142 210.346 114.354C210.187 114.562 209.96 114.75 209.665 114.915C209.37 115.078 208.977 115.159 208.487 115.159ZM208.646 114.105C209.116 114.105 209.514 113.982 209.839 113.737C210.164 113.489 210.411 113.146 210.58 112.708C210.749 112.267 210.833 111.759 210.833 111.182C210.833 110.612 210.75 110.113 210.585 109.685C210.419 109.254 210.174 108.92 209.849 108.681C209.524 108.439 209.123 108.318 208.646 108.318C208.149 108.318 207.734 108.446 207.403 108.701C207.075 108.953 206.828 109.296 206.662 109.73C206.5 110.161 206.419 110.645 206.419 111.182C206.419 111.725 206.501 112.219 206.667 112.663C206.836 113.104 207.085 113.455 207.413 113.717C207.744 113.976 208.155 114.105 208.646 114.105Z" fill="black"/>
<rect opacity="0.63" x="121" y="122" width="44" height="9" rx="4" fill="#D9D9D9"/>
<rect opacity="0.63" x="121" y="137" width="94" height="9" rx="4" fill="#D9D9D9"/>
<path d="M96.2083 117.833C96.2083 118.109 96.0985 118.374 95.9032 118.57C95.7078 118.765 95.4429 118.875 95.1667 118.875C94.8904 118.875 94.6255 118.765 94.4301 118.57C94.2348 118.374 94.125 118.109 94.125 117.833V111.583C94.125 111.307 94.2348 111.042 94.4301 110.847C94.6255 110.651 94.8904 110.542 95.1667 110.542C95.4429 110.542 95.7078 110.651 95.9032 110.847C96.0985 111.042 96.2083 111.307 96.2083 111.583V117.833ZM101.417 117.833C101.417 118.109 101.307 118.374 101.112 118.57C100.916 118.765 100.651 118.875 100.375 118.875C100.099 118.875 99.8338 118.765 99.6384 118.57C99.4431 118.374 99.3333 118.109 99.3333 117.833V108.458C99.3333 108.182 99.4431 107.917 99.6384 107.722C99.8338 107.526 100.099 107.417 100.375 107.417C100.651 107.417 100.916 107.526 101.112 107.722C101.307 107.917 101.417 108.182 101.417 108.458V117.833ZM106.625 117.833C106.625 118.109 106.515 118.374 106.32 118.57C106.124 118.765 105.86 118.875 105.583 118.875C105.307 118.875 105.042 118.765 104.847 118.57C104.651 118.374 104.542 118.109 104.542 117.833V109.5C104.542 109.224 104.651 108.959 104.847 108.763C105.042 108.568 105.307 108.458 105.583 108.458C105.86 108.458 106.124 108.568 106.32 108.763C106.515 108.959 106.625 109.224 106.625 109.5V117.833ZM111.833 117.833C111.833 118.109 111.724 118.374 111.528 118.57C111.333 118.765 111.068 118.875 110.792 118.875C110.515 118.875 110.25 118.765 110.055 118.57C109.86 118.374 109.75 118.109 109.75 117.833V106.375C109.75 106.099 109.86 105.834 110.055 105.638C110.25 105.443 110.515 105.333 110.792 105.333C111.068 105.333 111.333 105.443 111.528 105.638C111.724 105.834 111.833 106.099 111.833 106.375V117.833ZM95.8177 108.229C95.7116 108.32 95.5884 108.388 95.4553 108.43C95.3223 108.472 95.1821 108.487 95.0432 108.474C94.9043 108.461 94.7695 108.42 94.6467 108.354C94.5239 108.287 94.4156 108.197 94.3284 108.088C94.2411 107.979 94.1766 107.854 94.1388 107.72C94.1009 107.585 94.0903 107.445 94.1078 107.307C94.1253 107.168 94.1704 107.035 94.2404 106.914C94.3105 106.793 94.4041 106.688 94.5156 106.604L99.724 102.437C99.8678 102.322 100.04 102.247 100.222 102.22C100.404 102.193 100.59 102.215 100.761 102.283L105.461 104.162L111.255 100.3C111.369 100.224 111.497 100.171 111.631 100.145C111.765 100.118 111.903 100.118 112.037 100.145C112.172 100.172 112.299 100.225 112.413 100.301C112.526 100.377 112.624 100.475 112.7 100.588C112.776 100.702 112.829 100.83 112.855 100.964C112.882 101.098 112.882 101.236 112.855 101.371C112.828 101.505 112.775 101.632 112.699 101.746C112.623 101.86 112.525 101.957 112.411 102.033L106.161 106.2C106.021 106.294 105.86 106.352 105.692 106.369C105.523 106.386 105.354 106.363 105.197 106.3L100.551 104.443L95.8177 108.23V108.229Z" fill="#D2B596"/>
<g filter="url(#filter3_d_1047_1159)">
<rect x="45" y="173" width="140" height="67" rx="12" fill="white"/>
</g>
<path d="M88.233 200V189.818H91.6733C92.4688 189.818 93.1217 189.954 93.6321 190.226C94.1425 190.494 94.5204 190.864 94.7656 191.335C95.0109 191.805 95.1335 192.34 95.1335 192.94C95.1335 193.54 95.0109 194.072 94.7656 194.536C94.5204 195 94.1442 195.365 93.6371 195.63C93.13 195.892 92.482 196.023 91.6932 196.023H88.9091V194.909H91.6534C92.197 194.909 92.6345 194.83 92.9659 194.67C93.3007 194.511 93.5426 194.286 93.6918 193.994C93.8442 193.699 93.9205 193.348 93.9205 192.94C93.9205 192.533 93.8442 192.176 93.6918 191.871C93.5393 191.567 93.2957 191.331 92.9609 191.165C92.6262 190.996 92.1837 190.912 91.6335 190.912H89.4659V200H88.233ZM93.0256 195.426L95.5312 200H94.0994L91.6335 195.426H93.0256ZM97.0289 200V192.364H98.2022V200H97.0289ZM97.6255 191.091C97.3968 191.091 97.1996 191.013 97.0339 190.857C96.8715 190.701 96.7903 190.514 96.7903 190.295C96.7903 190.077 96.8715 189.889 97.0339 189.734C97.1996 189.578 97.3968 189.5 97.6255 189.5C97.8542 189.5 98.0498 189.578 98.2122 189.734C98.3779 189.889 98.4608 190.077 98.4608 190.295C98.4608 190.514 98.3779 190.701 98.2122 190.857C98.0498 191.013 97.8542 191.091 97.6255 191.091ZM105.76 194.074L104.706 194.372C104.64 194.196 104.542 194.026 104.413 193.86C104.287 193.691 104.115 193.552 103.896 193.442C103.677 193.333 103.397 193.278 103.056 193.278C102.588 193.278 102.199 193.386 101.887 193.602C101.579 193.814 101.425 194.084 101.425 194.412C101.425 194.704 101.531 194.934 101.743 195.103C101.955 195.272 102.287 195.413 102.738 195.526L103.871 195.804C104.554 195.97 105.063 196.223 105.397 196.565C105.732 196.903 105.9 197.339 105.9 197.872C105.9 198.31 105.774 198.701 105.522 199.045C105.273 199.39 104.925 199.662 104.478 199.861C104.03 200.06 103.51 200.159 102.917 200.159C102.138 200.159 101.493 199.99 100.983 199.652C100.472 199.314 100.149 198.82 100.013 198.17L101.127 197.892C101.233 198.303 101.433 198.611 101.728 198.817C102.027 199.022 102.416 199.125 102.897 199.125C103.444 199.125 103.878 199.009 104.199 198.777C104.524 198.542 104.686 198.26 104.686 197.932C104.686 197.667 104.594 197.445 104.408 197.266C104.222 197.083 103.937 196.947 103.553 196.858L102.28 196.56C101.581 196.394 101.067 196.137 100.739 195.789C100.414 195.438 100.252 194.999 100.252 194.472C100.252 194.041 100.373 193.66 100.615 193.328C100.86 192.997 101.193 192.737 101.614 192.548C102.038 192.359 102.519 192.264 103.056 192.264C103.811 192.264 104.405 192.43 104.836 192.761C105.27 193.093 105.578 193.53 105.76 194.074ZM108.759 197.216L108.74 195.764H108.978L112.319 192.364H113.771L110.211 195.963H110.112L108.759 197.216ZM107.666 200V189.818H108.839V200H107.666ZM112.518 200L109.535 196.222L110.37 195.406L114.009 200H112.518Z" fill="black"/>
<rect opacity="0.63" x="83" y="207" width="44" height="9" rx="4" fill="#D9D9D9"/>
<rect opacity="0.63" x="83" y="222" width="77" height="9" rx="4" fill="#D9D9D9"/>
<path d="M68.1186 186.362L58.375 187.891V197.129L58.3978 197.212C58.4187 197.289 58.9331 199.114 61.0414 201.698C62.3197 203.265 63.8953 204.204 64.992 204.715C66.0489 205.208 66.873 205.411 67.0705 205.455C67.3966 205.564 67.7029 205.619 68.006 205.619C68.3055 205.619 68.6018 205.566 68.9109 205.459C69.2218 205.37 72.1233 204.486 74.9106 201.751C76.026 200.656 76.8189 199.556 77.2674 198.48C77.6079 197.663 77.6255 197.148 77.625 197.041V187.893L68.1186 186.362ZM76.3359 197.04L76.3359 197.042L76.3353 197.035L76.3357 197.044C76.3331 197.094 76.3049 197.47 76.0368 198.079C75.7678 198.69 75.1974 199.663 74.0078 200.83C72.6331 202.179 71.224 203.029 70.2839 203.504C69.2598 204.022 68.5531 204.221 68.5471 204.222L68.5251 204.228L68.5036 204.236C68.1318 204.367 67.8574 204.364 67.4549 204.224L67.4148 204.21L67.3733 204.202C67.3418 204.195 64.1957 203.525 62.0403 200.883C61.0384 199.655 60.4392 198.629 60.1129 197.985C59.8461 197.457 59.7134 197.093 59.6641 196.944V188.993L68.1159 187.667L76.3359 188.991V197.04Z" fill="#D2B596"/>
<path d="M66.9631 191.419L64.7401 196.294C64.6765 196.444 64.7995 196.604 64.9778 196.604H67.1162C67.2788 196.604 67.3997 196.74 67.3648 196.882L66.873 198.893L66.7109 199.881L66.644 200.289H66.873L71.2258 195.048C71.3512 194.897 71.2314 194.682 71.0219 194.682H68.5931C68.4076 194.682 68.2844 194.509 68.3618 194.358L69.7722 191.592C69.8451 191.441 69.7219 191.272 69.5387 191.272H67.2008C67.0953 191.272 67.0008 191.331 66.9631 191.419Z" fill="#D2B596"/>
<g filter="url(#filter4_d_1047_1159)">
<rect x="261" y="37" width="176" height="238" rx="12" fill="white"/>
</g>
<path d="M305.466 53.8182V64H304.233V53.8182H305.466ZM308.952 59.4062V64H307.779V56.3636H308.912V57.5568H309.012C309.191 57.169 309.463 56.8575 309.827 56.6222C310.192 56.3835 310.662 56.2642 311.239 56.2642C311.756 56.2642 312.209 56.3703 312.596 56.5824C312.984 56.7912 313.286 57.1094 313.501 57.5369C313.717 57.9612 313.824 58.4981 313.824 59.1477V64H312.651V59.2273C312.651 58.6274 312.495 58.16 312.184 57.8253C311.872 57.4872 311.445 57.3182 310.901 57.3182C310.527 57.3182 310.192 57.3994 309.897 57.5618C309.605 57.7242 309.375 57.9612 309.206 58.2727C309.037 58.5843 308.952 58.9621 308.952 59.4062ZM321.377 58.0739L320.324 58.3722C320.257 58.1965 320.159 58.0258 320.03 57.8601C319.904 57.6911 319.732 57.5518 319.513 57.4425C319.294 57.3331 319.014 57.2784 318.673 57.2784C318.206 57.2784 317.816 57.3861 317.505 57.6016C317.196 57.8137 317.042 58.0838 317.042 58.4119C317.042 58.7036 317.148 58.9339 317.36 59.103C317.573 59.272 317.904 59.4129 318.355 59.5256L319.488 59.804C320.171 59.9697 320.68 60.2232 321.015 60.5646C321.349 60.9027 321.517 61.3385 321.517 61.8722C321.517 62.3097 321.391 62.7008 321.139 63.0455C320.89 63.3902 320.542 63.6619 320.095 63.8608C319.647 64.0597 319.127 64.1591 318.534 64.1591C317.755 64.1591 317.11 63.9901 316.6 63.652C316.089 63.3139 315.766 62.8201 315.63 62.1705L316.744 61.892C316.85 62.303 317.051 62.6113 317.346 62.8168C317.644 63.0223 318.033 63.125 318.514 63.125C319.061 63.125 319.495 63.009 319.816 62.777C320.141 62.5417 320.304 62.2599 320.304 61.9318C320.304 61.6667 320.211 61.4446 320.025 61.2656C319.84 61.0833 319.555 60.9474 319.17 60.858L317.897 60.5597C317.198 60.3939 316.684 60.1371 316.356 59.7891C316.031 59.4377 315.869 58.9986 315.869 58.4716C315.869 58.0407 315.99 57.6596 316.232 57.3281C316.477 56.9967 316.81 56.7365 317.231 56.5476C317.655 56.3587 318.136 56.2642 318.673 56.2642C319.429 56.2642 320.022 56.4299 320.453 56.7614C320.887 57.0928 321.195 57.5303 321.377 58.0739ZM323.283 64V56.3636H324.456V64H323.283ZM323.879 55.0909C323.651 55.0909 323.454 55.013 323.288 54.8572C323.125 54.7015 323.044 54.5142 323.044 54.2955C323.044 54.0767 323.125 53.8894 323.288 53.7337C323.454 53.5779 323.651 53.5 323.879 53.5C324.108 53.5 324.304 53.5779 324.466 53.7337C324.632 53.8894 324.715 54.0767 324.715 54.2955C324.715 54.5142 324.632 54.7015 324.466 54.8572C324.304 55.013 324.108 55.0909 323.879 55.0909ZM329.688 67.0227C329.121 67.0227 328.634 66.9498 328.226 66.804C327.818 66.6615 327.478 66.4725 327.207 66.2372C326.938 66.0052 326.724 65.7566 326.565 65.4915L327.5 64.8352C327.606 64.9744 327.74 65.1335 327.903 65.3125C328.065 65.4948 328.287 65.6522 328.569 65.7848C328.854 65.9207 329.227 65.9886 329.688 65.9886C330.304 65.9886 330.813 65.8395 331.214 65.5412C331.615 65.2429 331.815 64.7756 331.815 64.1392V62.5881H331.716C331.63 62.7273 331.507 62.8996 331.348 63.1051C331.192 63.3073 330.967 63.4879 330.672 63.647C330.38 63.8028 329.986 63.8807 329.489 63.8807C328.872 63.8807 328.319 63.7348 327.828 63.4432C327.341 63.1515 326.955 62.7273 326.67 62.1705C326.388 61.6136 326.247 60.9375 326.247 60.142C326.247 59.3598 326.385 58.6787 326.66 58.0987C326.935 57.5154 327.318 57.0646 327.808 56.7464C328.299 56.425 328.866 56.2642 329.509 56.2642C330.006 56.2642 330.4 56.3471 330.692 56.5128C330.987 56.6752 331.212 56.8608 331.368 57.0696C331.527 57.2751 331.65 57.4441 331.736 57.5767H331.855V56.3636H332.989V64.2188C332.989 64.875 332.839 65.4086 332.541 65.8196C332.246 66.2339 331.848 66.5372 331.348 66.7294C330.851 66.925 330.297 67.0227 329.688 67.0227ZM329.648 62.8267C330.118 62.8267 330.516 62.719 330.841 62.5036C331.166 62.2881 331.413 61.9782 331.582 61.5739C331.751 61.1695 331.835 60.6856 331.835 60.1222C331.835 59.572 331.752 59.0864 331.587 58.6655C331.421 58.2446 331.176 57.9148 330.851 57.6761C330.526 57.4375 330.125 57.3182 329.648 57.3182C329.151 57.3182 328.736 57.4441 328.405 57.696C328.077 57.9479 327.83 58.286 327.664 58.7102C327.502 59.1345 327.42 59.6051 327.42 60.1222C327.42 60.6525 327.503 61.1214 327.669 61.5291C327.838 61.9335 328.087 62.2517 328.415 62.4837C328.746 62.7124 329.157 62.8267 329.648 62.8267ZM336.31 59.4062V64H335.136V53.8182H336.31V57.5568H336.409C336.588 57.1624 336.857 56.8492 337.214 56.6172C337.576 56.3819 338.056 56.2642 338.656 56.2642C339.177 56.2642 339.632 56.3686 340.023 56.5774C340.415 56.7829 340.718 57.0994 340.933 57.527C341.152 57.9512 341.261 58.4915 341.261 59.1477V64H340.088V59.2273C340.088 58.6207 339.931 58.1518 339.616 57.8203C339.304 57.4856 338.872 57.3182 338.318 57.3182C337.934 57.3182 337.589 57.3994 337.284 57.5618C336.982 57.7242 336.744 57.9612 336.568 58.2727C336.396 58.5843 336.31 58.9621 336.31 59.4062ZM346.729 56.3636V57.358H342.771V56.3636H346.729ZM343.925 54.5341H345.098V61.8125C345.098 62.1439 345.146 62.3925 345.242 62.5582C345.342 62.7206 345.468 62.83 345.62 62.8864C345.776 62.9394 345.94 62.9659 346.112 62.9659C346.242 62.9659 346.348 62.9593 346.431 62.946C346.513 62.9295 346.58 62.9162 346.629 62.9062L346.868 63.9602C346.789 63.9901 346.677 64.0199 346.535 64.0497C346.392 64.0829 346.212 64.0994 345.993 64.0994C345.662 64.0994 345.337 64.0282 345.019 63.8857C344.704 63.7431 344.442 63.526 344.233 63.2344C344.028 62.9427 343.925 62.5748 343.925 62.1307V54.5341ZM353.766 58.0739L352.712 58.3722C352.646 58.1965 352.548 58.0258 352.419 57.8601C352.293 57.6911 352.121 57.5518 351.902 57.4425C351.683 57.3331 351.403 57.2784 351.062 57.2784C350.594 57.2784 350.205 57.3861 349.893 57.6016C349.585 57.8137 349.431 58.0838 349.431 58.4119C349.431 58.7036 349.537 58.9339 349.749 59.103C349.961 59.272 350.293 59.4129 350.743 59.5256L351.877 59.804C352.56 59.9697 353.068 60.2232 353.403 60.5646C353.738 60.9027 353.905 61.3385 353.905 61.8722C353.905 62.3097 353.779 62.7008 353.528 63.0455C353.279 63.3902 352.931 63.6619 352.483 63.8608C352.036 64.0597 351.516 64.1591 350.922 64.1591C350.144 64.1591 349.499 63.9901 348.988 63.652C348.478 63.3139 348.155 62.8201 348.019 62.1705L349.133 61.892C349.239 62.303 349.439 62.6113 349.734 62.8168C350.032 63.0223 350.422 63.125 350.903 63.125C351.449 63.125 351.884 63.009 352.205 62.777C352.53 62.5417 352.692 62.2599 352.692 61.9318C352.692 61.6667 352.599 61.4446 352.414 61.2656C352.228 61.0833 351.943 60.9474 351.559 60.858L350.286 60.5597C349.587 60.3939 349.073 60.1371 348.745 59.7891C348.42 59.4377 348.258 58.9986 348.258 58.4716C348.258 58.0407 348.379 57.6596 348.621 57.3281C348.866 56.9967 349.199 56.7365 349.62 56.5476C350.044 56.3587 350.525 56.2642 351.062 56.2642C351.817 56.2642 352.411 56.4299 352.841 56.7614C353.276 57.0928 353.584 57.5303 353.766 58.0739Z" fill="black"/>
<rect opacity="0.63" x="299" y="71" width="44" height="9" rx="4" fill="#D9D9D9"/>
<rect opacity="0.63" x="297" y="116" width="86" height="9" rx="4" fill="#D9D9D9"/>
<rect opacity="0.63" x="297" y="161" width="86" height="9" rx="4" fill="#D9D9D9"/>
<rect opacity="0.63" x="297" y="192" width="86" height="9" rx="4" fill="#D9D9D9"/>
<rect opacity="0.63" x="299" y="86" width="77" height="9" rx="4" fill="#D9D9D9"/>
<rect opacity="0.63" x="297" y="131" width="150" height="9" rx="4" fill="#D9D9D9"/>
<rect opacity="0.63" x="297" y="176" width="110" height="9" rx="4" fill="#D9D9D9"/>
<rect opacity="0.63" x="297" y="207" width="110" height="9" rx="4" fill="#D9D9D9"/>
<path d="M288.264 71.072V73H280.202V71.072H288.264ZM284.234 49.6C286.588 49.6 288.746 50.58 290.314 52.15C291.119 52.9465 291.758 53.8938 292.196 54.9378C292.634 55.9818 292.862 57.1019 292.866 58.234C292.866 59.93 292.448 61.542 291.616 62.9C290.818 64.2016 289.651 65.2368 288.264 65.874V69.934H280.202V65.874C278.815 65.2368 277.648 64.2016 276.85 62.9C276.018 61.54 275.6 59.93 275.6 58.234C275.6 55.878 276.58 53.72 278.15 52.15C278.947 51.3458 279.894 50.7066 280.938 50.2691C281.982 49.8315 283.102 49.6041 284.234 49.6ZM284.234 51.528C283.353 51.5251 282.479 51.6966 281.664 52.0325C280.849 52.3685 280.109 52.8624 279.486 53.4857C278.862 54.109 278.369 54.8494 278.033 55.6643C277.697 56.4792 277.525 57.3525 277.528 58.234C277.528 59.51 277.868 60.712 278.512 61.74C279.148 62.756 280.076 63.604 281.26 64.194L282.13 64.716V68.004H286.336V64.716L287.206 64.196C288.332 63.6482 289.284 62.7978 289.954 61.74C290.606 60.6873 290.947 59.472 290.938 58.234C290.941 57.3527 290.769 56.4795 290.434 55.6648C290.098 54.85 289.604 54.1096 288.981 53.4864C288.358 52.8631 287.618 52.3692 286.803 52.0331C285.988 51.697 285.115 51.5254 284.234 51.528ZM288.264 57.268V59.2H285.2V66.868H283.272V59.198H280.2V57.27H288.262L288.264 57.268ZM297.466 57.268V59.2H294.006V57.272H297.466V57.268ZM274.462 57.268V59.2H271V57.272H274.46L274.462 57.268ZM293.21 47.894L294.572 49.254L292.126 51.704L290.762 50.342L293.21 47.894ZM275.258 47.894L277.7 50.338L276.338 51.702L273.888 49.254L275.256 47.894H275.258ZM285.198 45V48.46H283.27V45H285.198Z" fill="#D2B596"/>
</g>
</g>
<defs>
<filter id="filter0_ddd_1047_1159" x="0.75" y="0" width="432.5" height="296.25" filterUnits="userSpaceOnUse" color-interpolation-filters="sRGB">
<feFlood flood-opacity="0" result="BackgroundImageFix"/>
<feColorMatrix in="SourceAlpha" type="matrix" values="0 0 0 0 0 0 0 0 0 0 0 0 0 0 0 0 0 0 127 0" result="hardAlpha"/>
<feMorphology radius="3.75" operator="erode" in="SourceAlpha" result="effect1_dropShadow_1047_1159"/>
<feOffset dy="10"/>
<feGaussianBlur stdDeviation="5"/>
<feComposite in2="hardAlpha" operator="out"/>
<feColorMatrix type="matrix" values="0 0 0 0 0 0 0 0 0 0 0 0 0 0 0 0 0 0 0.03 0"/>
<feBlend mode="normal" in2="BackgroundImageFix" result="effect1_dropShadow_1047_1159"/>
<feColorMatrix in="SourceAlpha" type="matrix" values="0 0 0 0 0 0 0 0 0 0 0 0 0 0 0 0 0 0 127 0" result="hardAlpha"/>
<feMorphology radius="2.5" operator="erode" in="SourceAlpha" result="effect2_dropShadow_1047_1159"/>
<feOffset dy="2.28853"/>
<feGaussianBlur stdDeviation="1.14427"/>
<feComposite in2="hardAlpha" operator="out"/>
<feColorMatrix type="matrix" values="0 0 0 0 0 0 0 0 0 0 0 0 0 0 0 0 0 0 0.075 0"/>
<feBlend mode="normal" in2="effect1_dropShadow_1047_1159" result="effect2_dropShadow_1047_1159"/>
<feColorMatrix in="SourceAlpha" type="matrix" values="0 0 0 0 0 0 0 0 0 0 0 0 0 0 0 0 0 0 127 0" result="hardAlpha"/>
<feMorphology radius="1.25" operator="erode" in="SourceAlpha" result="effect3_dropShadow_1047_1159"/>
<feOffset dy="0.602187"/>
<feGaussianBlur stdDeviation="0.301093"/>
<feComposite in2="hardAlpha" operator="out"/>
<feColorMatrix type="matrix" values="0 0 0 0 0 0 0 0 0 0 0 0 0 0 0 0 0 0 0.09 0"/>
<feBlend mode="normal" in2="effect2_dropShadow_1047_1159" result="effect3_dropShadow_1047_1159"/>
<feBlend mode="normal" in="SourceGraphic" in2="effect3_dropShadow_1047_1159" result="shape"/>
</filter>
<filter id="filter1_d_1047_1159" x="47.6" y="33.6" width="160.8" height="87.8" filterUnits="userSpaceOnUse" color-interpolation-filters="sRGB">
<feFlood flood-opacity="0" result="BackgroundImageFix"/>
<feColorMatrix in="SourceAlpha" type="matrix" values="0 0 0 0 0 0 0 0 0 0 0 0 0 0 0 0 0 0 127 0" result="hardAlpha"/>
<feOffset dy="2"/>
<feGaussianBlur stdDeviation="5.2"/>
<feComposite in2="hardAlpha" operator="out"/>
<feColorMatrix type="matrix" values="0 0 0 0 0 0 0 0 0 0 0 0 0 0 0 0 0 0 0.17 0"/>
<feBlend mode="normal" in2="BackgroundImageFix" result="effect1_dropShadow_1047_1159"/>
<feBlend mode="normal" in="SourceGraphic" in2="effect1_dropShadow_1047_1159" result="shape"/>
</filter>
<filter id="filter2_d_1047_1159" x="72.6" y="79.6" width="175.8" height="87.8" filterUnits="userSpaceOnUse" color-interpolation-filters="sRGB">
<feFlood flood-opacity="0" result="BackgroundImageFix"/>
<feColorMatrix in="SourceAlpha" type="matrix" values="0 0 0 0 0 0 0 0 0 0 0 0 0 0 0 0 0 0 127 0" result="hardAlpha"/>
<feOffset dy="2"/>
<feGaussianBlur stdDeviation="5.2"/>
<feComposite in2="hardAlpha" operator="out"/>
<feColorMatrix type="matrix" values="0 0 0 0 0 0 0 0 0 0 0 0 0 0 0 0 0 0 0.17 0"/>
<feBlend mode="normal" in2="BackgroundImageFix" result="effect1_dropShadow_1047_1159"/>
<feBlend mode="normal" in="SourceGraphic" in2="effect1_dropShadow_1047_1159" result="shape"/>
</filter>
<filter id="filter3_d_1047_1159" x="34.6" y="164.6" width="160.8" height="87.8" filterUnits="userSpaceOnUse" color-interpolation-filters="sRGB">
<feFlood flood-opacity="0" result="BackgroundImageFix"/>
<feColorMatrix in="SourceAlpha" type="matrix" values="0 0 0 0 0 0 0 0 0 0 0 0 0 0 0 0 0 0 127 0" result="hardAlpha"/>
<feOffset dy="2"/>
<feGaussianBlur stdDeviation="5.2"/>
<feComposite in2="hardAlpha" operator="out"/>
<feColorMatrix type="matrix" values="0 0 0 0 0 0 0 0 0 0 0 0 0 0 0 0 0 0 0.17 0"/>
<feBlend mode="normal" in2="BackgroundImageFix" result="effect1_dropShadow_1047_1159"/>
<feBlend mode="normal" in="SourceGraphic" in2="effect1_dropShadow_1047_1159" result="shape"/>
</filter>
<filter id="filter4_d_1047_1159" x="250.6" y="28.6" width="196.8" height="258.8" filterUnits="userSpaceOnUse" color-interpolation-filters="sRGB">
<feFlood flood-opacity="0" result="BackgroundImageFix"/>
<feColorMatrix in="SourceAlpha" type="matrix" values="0 0 0 0 0 0 0 0 0 0 0 0 0 0 0 0 0 0 127 0" result="hardAlpha"/>
<feOffset dy="2"/>
<feGaussianBlur stdDeviation="5.2"/>
<feComposite in2="hardAlpha" operator="out"/>
<feColorMatrix type="matrix" values="0 0 0 0 0 0 0 0 0 0 0 0 0 0 0 0 0 0 0.17 0"/>
<feBlend mode="normal" in2="BackgroundImageFix" result="effect1_dropShadow_1047_1159"/>
<feBlend mode="normal" in="SourceGraphic" in2="effect1_dropShadow_1047_1159" result="shape"/>
</filter>
<clipPath id="clip0_1047_1159">
<rect x="7" width="420" height="280" rx="14" fill="white"/>
</clipPath>
</defs>
</svg>
